<svg width="17" height="23" viewBox="0 0 17 23" fill="none" xmlns="http://www.w3.org/2000/svg">
    <path
        d="M16.5431 14.6422C16.8288 14.3422 16.8172 13.8675 16.5172 13.5818C16.2173 13.2961 15.7426 13.3077 15.4569 13.6077L16.5431 14.6422ZM7.9569 21.4827C7.67123 21.7826 7.68281 22.2573 7.98276 22.543C8.28271 22.8287 8.75744 22.8171 9.0431 22.5172L7.9569 21.4827ZM7.9569 22.5172C8.24256 22.8172 8.71729 22.8288 9.01724 22.5431C9.31719 22.2574 9.32877 21.7827 9.0431 21.4828L7.9569 22.5172ZM1.5431 13.6078C1.25744 13.3078 0.782706 13.2962 0.482759 13.5819C0.182811 13.8676 0.171232 14.3423 0.456897 14.6422L1.5431 13.6078ZM7.75195 22C7.75195 22.4142 8.08774 22.75 8.50195 22.75C8.91617 22.75 9.25195 22.4142 9.25195 22H7.75195ZM9.25195 1C9.25195 0.585787 8.91617 0.25 8.50195 0.25C8.08774 0.25 7.75195 0.585787 7.75195 1H9.25195ZM15.4569 13.6077L7.9569 21.4827L9.0431 22.5172L16.5431 14.6422L15.4569 13.6077ZM9.0431 21.4828L1.5431 13.6078L0.456897 14.6422L7.9569 22.5172L9.0431 21.4828ZM9.25195 22L9.25195 1H7.75195L7.75195 22H9.25195Z"
        fill="#F6F5F2" />
</svg>
    