<svg width="25" height="25" viewBox="0 0 25 25" fill="none" xmlns="http://www.w3.org/2000/svg">
<path d="M19.175 4.325C18.8783 4.325 18.5883 4.41297 18.3416 4.5778C18.095 4.74262 17.9027 4.97689 17.7892 5.25097C17.6756 5.52506 17.6459 5.82666 17.7038 6.11764C17.7617 6.40861 17.9046 6.67588 18.1143 6.88566C18.3241 7.09544 18.5914 7.2383 18.8824 7.29618C19.1733 7.35406 19.4749 7.32435 19.749 7.21082C20.0231 7.09729 20.2574 6.90503 20.4222 6.65836C20.587 6.41168 20.675 6.12167 20.675 5.825C20.675 5.42718 20.517 5.04564 20.2357 4.76434C19.9544 4.48304 19.5728 4.325 19.175 4.325V4.325ZM24.925 7.35C24.9007 6.31287 24.7064 5.28675 24.35 4.3125C24.0322 3.47892 23.5375 2.7241 22.9 2.1C22.281 1.45928 21.5244 0.967721 20.6875 0.6625C19.7158 0.295201 18.6886 0.0965125 17.65 0.0749999C16.325 -6.98492e-08 15.9 0 12.5 0C9.1 0 8.675 -6.98492e-08 7.35 0.0749999C6.31144 0.0965125 5.28418 0.295201 4.3125 0.6625C3.4771 0.970811 2.72117 1.46195 2.1 2.1C1.45928 2.71897 0.967721 3.47555 0.6625 4.3125C0.295201 5.28418 0.0965125 6.31144 0.0749999 7.35C-6.98492e-08 8.675 0 9.1 0 12.5C0 15.9 -6.98492e-08 16.325 0.0749999 17.65C0.0965125 18.6886 0.295201 19.7158 0.6625 20.6875C0.967721 21.5244 1.45928 22.281 2.1 22.9C2.72117 23.538 3.4771 24.0292 4.3125 24.3375C5.28418 24.7048 6.31144 24.9035 7.35 24.925C8.675 25 9.1 25 12.5 25C15.9 25 16.325 25 17.65 24.925C18.6886 24.9035 19.7158 24.7048 20.6875 24.3375C21.5244 24.0323 22.281 23.5407 22.9 22.9C23.5403 22.2782 24.0354 21.5227 24.35 20.6875C24.7064 19.7132 24.9007 18.6871 24.925 17.65C24.925 16.325 25 15.9 25 12.5C25 9.1 25 8.675 24.925 7.35V7.35ZM22.675 17.5C22.6659 18.2935 22.5222 19.0796 22.25 19.825C22.0504 20.369 21.7298 20.8605 21.3125 21.2625C20.9071 21.6756 20.4165 21.9955 19.875 22.2C19.1296 22.4722 18.3435 22.6159 17.55 22.625C16.3 22.6875 15.8375 22.7 12.55 22.7C9.2625 22.7 8.8 22.7 7.55 22.625C6.72611 22.6404 5.90574 22.5136 5.125 22.25C4.60723 22.0351 4.13919 21.716 3.75 21.3125C3.33511 20.9109 3.01855 20.419 2.825 19.875C2.51982 19.1189 2.35055 18.3149 2.325 17.5C2.325 16.25 2.25 15.7875 2.25 12.5C2.25 9.2125 2.25 8.75 2.325 7.5C2.3306 6.68882 2.47869 5.88493 2.7625 5.125C2.98256 4.59739 3.32033 4.12707 3.75 3.75C4.12977 3.32021 4.59911 2.97887 5.125 2.75C5.88694 2.47505 6.69 2.33135 7.5 2.325C8.75 2.325 9.2125 2.25 12.5 2.25C15.7875 2.25 16.25 2.25 17.5 2.325C18.2935 2.3341 19.0796 2.47781 19.825 2.75C20.393 2.96082 20.9029 3.30356 21.3125 3.75C21.7221 4.13397 22.0422 4.60342 22.25 5.125C22.5278 5.88617 22.6716 6.68972 22.675 7.5C22.7375 8.75 22.75 9.2125 22.75 12.5C22.75 15.7875 22.7375 16.25 22.675 17.5ZM12.5 6.0875C11.2323 6.08997 9.9937 6.46816 8.94082 7.17427C7.88793 7.88039 7.06797 8.88275 6.58454 10.0547C6.10111 11.2266 5.9759 12.5156 6.22474 13.7587C6.47358 15.0017 7.0853 16.1432 7.98259 17.0387C8.87989 17.9343 10.0225 18.5438 11.2661 18.7902C12.5096 19.0366 13.7983 18.9089 14.9693 18.4232C16.1403 17.9375 17.1411 17.1155 17.8452 16.0613C18.5492 15.007 18.925 13.7677 18.925 12.5C18.9267 11.6564 18.7615 10.8208 18.439 10.0412C18.1166 9.26163 17.6432 8.55351 17.0461 7.95756C16.449 7.36161 15.7399 6.8896 14.9597 6.56866C14.1796 6.24773 13.3436 6.0842 12.5 6.0875V6.0875ZM12.5 16.6625C11.6767 16.6625 10.872 16.4184 10.1874 15.961C9.50292 15.5036 8.9694 14.8535 8.65435 14.0929C8.3393 13.3323 8.25687 12.4954 8.41748 11.6879C8.57809 10.8805 8.97453 10.1388 9.55667 9.55667C10.1388 8.97453 10.8805 8.57809 11.6879 8.41748C12.4954 8.25687 13.3323 8.3393 14.0929 8.65435C14.8535 8.9694 15.5036 9.50292 15.961 10.1874C16.4184 10.872 16.6625 11.6767 16.6625 12.5C16.6625 13.0466 16.5548 13.5879 16.3456 14.0929C16.1365 14.5979 15.8299 15.0568 15.4433 15.4433C15.0568 15.8299 14.5979 16.1365 14.0929 16.3456C13.5879 16.5548 13.0466 16.6625 12.5 16.6625V16.6625Z" fill="#F6F5F2"/>
</svg>
